<svg xmlns="http://www.w3.org/2000/svg" viewBox="0 0 323.5 301.8">
  <defs>
    <style>
      .a{fill:#dadada;opacity:0.23;}.aa,.b,.d,.f,.g,.i,.o,.p,.q,.y{fill:none;}.aa,.b,.s,.u,.v{stroke:#28282d;}.aa,.b,.d,.f,.g,.i,.j,.o,.p,.q,.s,.u,.v,.w,.y{stroke-miterlimit:10;}.b,.d,.i,.o,.p,.q,.u{stroke-width:1.4px;}.c,.j,.u,.w{fill:#fff;}.d,.i{stroke:#7f95ff;}.e,.h,.m{fill:#7f95ff;}.f{stroke:#dcdcdc;}.f,.g{stroke-width:0.2px;}.g{stroke:#708ed2;stroke-dasharray:0.5;}.h{opacity:0.06;}.i{stroke-linecap:round;}.j{stroke:#b3c0ff;stroke-width:0.25px;}.k{fill:#4e4f57;}.l{font-size:3px;fill:#aeaeae;font-family:PingFangSC-Light-GBpc-EUC-H,
      PingFang SC;}.m{opacity:0.37;}.n{opacity:0.72;}.o,.p,.q{stroke:#5a5b67;}.p{stroke-dasharray:5.12
      5.12;}.q{stroke-dasharray:5.51
      5.51;}.r{fill:#fa0;}.s{fill:#161413;}.t{fill:#28282d;}.v,.z{fill:#ff7447;}.w,.y{stroke:#25262e;}.x{fill:#0a0b1f;}
    </style>
  </defs>
  <title>数据展示板</title>
  <path class="a"
        d="M43.9,319.2a35.9,35.9,0,0,1-1.7-3.4c-5.4-12-31.7-77.4,22.9-100.2,39.6-16.5,28.9-43.5,17-60.1a28.5,28.5,0,0,1,.6-34.2c26.6-34.6,93-98.7,198.6-56.6,122.1,48.6,59.1,186.2,40.3,221.7A29,29,0,0,1,308.5,299C267.8,318.5,92.3,396.5,43.9,319.2Z"
        transform="translate(-31.1 -50.9)"/>
  <path class="b" d="M332.7,333.4H53.8" transform="translate(-31.1 -50.9)"/>
  <rect class="c" x="125.1" y="37.1" width="172.1" height="217.29" rx="12"/>
  <path class="d"
        d="M161.1,147.8V103.4a12,12,0,0,1,12-12H321.2a12,12,0,0,1,12,12V296.7a12,12,0,0,1-12,12H173.1a12,12,0,0,1-12-12v-120"
        transform="translate(-31.1 -50.9)"/>
  <path class="e"
        d="M142,40.6H290.1a12,12,0,0,1,12,12V69.9a0,0,0,0,1,0,0H130a0,0,0,0,1,0,0V52.6A12,12,0,0,1,142,40.6Z"/>
  <line class="f" x1="149.4" y1="129.6" x2="285.7" y2="129.6"/>
  <line class="g" x1="254.8" y1="87.6" x2="254.8" y2="129.6"/>
  <path class="h"
        d="M180.5,160.7a18.9,18.9,0,0,1,13.3,2.5c6.7,4.1,11.7-7.2,15.3-9.5,1.3-.8,6.8-1.4,11.8,6.4s11.8-.1,13.8-1.5,5-3.1,9-5.4a63.3,63.3,0,0,0,10.3-7.3c2.3-1.8,6.4-3.2,8.5-1.1s3.7,7.8,7,7.8c4.8,0,10.2-16.1,16.4-16.1s10.2,9.8,12.4,12.1c4.4,4.6,14.8,1.7,14.8,1.7v30.2H180.5Z"
        transform="translate(-31.1 -50.9)"/>
  <path class="i"
        d="M313.1,150.3s-10.4,2.9-14.8-1.7c-2.2-2.3-6.7-12.1-12.4-12.1s-11.6,16.1-16.4,16.1c-3.3,0-5-5.6-7-7.8s-6.2-.7-8.5,1.1a63.3,63.3,0,0,1-10.3,7.3c-4,2.3-6.4,3.6-9,5.4s-8.7,9.3-13.8,1.5-10.5-7.2-11.8-6.4c-3.6,2.3-8.6,13.6-15.3,9.5a18.9,18.9,0,0,0-13.3-2.5"
        transform="translate(-31.1 -50.9)"/>
  <circle class="j" cx="254.7" cy="86.4" r="3.8"/>
  <circle class="k" cx="254.7" cy="86.4" r="1.4"/>
  <text class="l" transform="translate(142.5 129.6)">0%</text>
  <text class="l" transform="translate(142.5 119.5)">2%</text>
  <text class="l" transform="translate(142.5 108.6)">3%</text>
  <text class="l" transform="translate(142.5 98.1)">4%</text>
  <text class="l" transform="translate(142.5 87.6)">5%</text>
  <text class="l" transform="translate(162.4 137.1)">03</text>
  <text class="l" transform="translate(175.3 137.1)">05</text>
  <text class="l" transform="translate(188.3 137.1)">07</text>
  <text class="l" transform="translate(201.3 137.1)">09</text>
  <text class="l" transform="translate(214.3 137.1)">11</text>
  <text class="l" transform="translate(227.3 137.1)">13</text>
  <text class="l" transform="translate(240.2 137.1)">15</text>
  <text class="l" transform="translate(253.2 137.1)">17</text>
  <text class="l" transform="translate(266.2 137.1)">19</text>
  <text class="l" transform="translate(279.2 137.1)">21</text>
  <circle class="m" cx="167" cy="172.2" r="5.9"/>
  <circle class="e" cx="162.2" cy="170.9" r="5.6"/>
  <g class="n">
    <line class="o" x1="180.1" y1="165.9" x2="182.6" y2="165.9"/>
    <line class="p" x1="187.8" y1="166" x2="256.9" y2="166.8"/>
    <line class="o" x1="259.5" y1="166.8" x2="262" y2="166.8"/>
  </g>
  <g class="n">
    <line class="o" x1="180.1" y1="177" x2="182.6" y2="177.1"/>
    <line class="q" x1="188.1" y1="177.2" x2="229.4" y2="177.9"/>
    <line class="o" x1="232.2" y1="178" x2="234.7" y2="178"/>
  </g>
  <circle class="r" cx="144" cy="55.3" r="4.5"/>
  <circle class="c" cx="184.2" cy="55.3" r="4.5"/>
  <circle class="c" cx="163.2" cy="55.3" r="4.5"/>
  <path class="s"
        d="M139.2,247.1s-18.1.5-30.6-10.6c1,3.1,13.7,96.3,13.7,96.3h17.2s1-28.2,1-42C141.4,279.3,139.2,247.1,139.2,247.1Z"
        transform="translate(-31.1 -50.9)"/>
  <path class="s" d="M127.4,239.6s-28.9,1.7-35.6,0c0,0-5.5,16.9-4.8,32.1.9,16.9-1.5,61.3-1.5,61.3H108Z"
        transform="translate(-31.1 -50.9)"/>
  <path class="t" d="M180.6,168.1s2.5-5.2,7.6,11l1.8,5-7.2-9.3S179.8,168.5,180.6,168.1Z"
        transform="translate(-31.1 -50.9)"/>
  <path class="u"
        d="M199.1,178.5c1.2-.4,13.6-4.9,12.2-1.7s-12,4.2-12.7,4.5c-12.6,5.2-13.5.2-13.5.2-4.1-1.9-1.7-6.9-.9-10.1.2-.8-.4-2.5.8-3.9s3.3-3.3,3.4-4.7c.3-5.9,2.2-8.6,4-5.9,3,4.3.1,7.7,0,8.9s1.4.8,1.4.8c3-.5,14.3-6.2,16.5-7.2l.8-.3c2.3-1.2,5.9,1.2,4.3,3.1-3.5,4-17.7,7.2-17.7,7.2,12.4-2.9,20.1-9,20.3-2.9.1,2.4-4.6,2.3-19.4,8,0,0,16.2-6.6,17-3.8a2.8,2.8,0,0,1-1.7,3.1c-.2.1-.6.7-7.5,2.5l-7.9,2.4Z"
        transform="translate(-31.1 -50.9)"/>
  <path class="v"
        d="M127.8,169.3a16.9,16.9,0,0,1,14.7,5.6c10.7,12,39-5.3,38.4-6.8,0,0,3,12.9,9.1,17.7,0,0-11.8,9.6-19.8,12.9-25.5,10.4-29.1,0-29.1,0l-1.7,42.9-47.3-.4V193.5s-3.9-12.6-2-16.2c0,0,4.5-6.7,19-8.8l7.9,3.9Z"
        transform="translate(-31.1 -50.9)"/>
  <path class="v" d="M91.4,175.9s-28.7,28.2,30.9,70.6l11.5-13.6s-35-23.5-33.5-39.5" transform="translate(-31.1 -50.9)"/>
  <path class="u"
        d="M124.7,244.7c1.1-4.2,4.1-6.7,6.3-8.5.5-.5.7-.4,1-1.1s3.6.9,6-.5c4.4-2.8,6.9-1.1,5.4,1.7s-6,2-6.7,2.8.4,1.5.4,1.5c10.5,5.9,23,8,19.8,12s-20.6-7-20.6-7c4.7,2.6,6.1,3.1,7.1,3.7s10.6,4.2,7.7,7.7c-1.6,1.9-16.2-7.5-15.3-6.9a27.4,27.4,0,0,0,2.8,1.8c.6.3,8.8,4.1,7.8,5.7,0,0-.5,3.9-12.2-4.6,0,0,8.7,4.1,6.2,4.8s-10-4.3-10-4.3S123.5,249.3,124.7,244.7Z"
        transform="translate(-31.1 -50.9)"/>
  <path class="w"
        d="M120.6,135.2s-9.2-1-7.5,10.7c0,0-5.2-4-6.2-.5,0,0-1.2,1.7,3.4,7v15l7.2,7.8h3.2l5.1-7.2v-6.1s8.7.3,9.3-10.1c0,0,.8-10.7-.3-14C134.8,137.7,127.2,129.8,120.6,135.2Z"
        transform="translate(-31.1 -50.9)"/>
  <path class="x"
        d="M113.1,145.4s-5.8-3.3-6.2,0c0,0-7-12,8.5-18.3,0,0,10.7-.5,16.5-1.7,0,0,2.2-2,1.9-3.4s.1-.4.3-.3c1.9,1.1,7.2,4.6,3.5,10a1.2,1.2,0,0,1-.5.5,4.6,4.6,0,0,0-2.2,3l.5,5c0,.3-.9-2.1-1.5-2.9s-2.5-1-3.1-.9-12.5,0-12.9-.1S112.2,137.5,113.1,145.4Z"
        transform="translate(-31.1 -50.9)"/>
  <polygon class="w" points="100.8 118.6 95.1 116 90.2 122.1 93.2 130.5 100.8 118.6"/>
  <polygon class="w" points="76 118.9 82.7 115.5 89.8 122.4 86.3 131.1 76 118.9"/>
  <path class="y" d="M129.7,155.2s-3.1,1.6-4.8-1.1" transform="translate(-31.1 -50.9)"/>
  <ellipse class="x" cx="123" cy="147.1" rx="0.9" ry="1.2" transform="translate(-53 -29.4) rotate(-9.2)"/>
  <ellipse class="x" cx="132.5" cy="146.7" rx="0.9" ry="1.2" transform="translate(-52.8 -27.9) rotate(-9.2)"/>
  <path class="e" d="M267.7,238.8s-1.7,33.8,20.4,43.1C288.1,281.9,297.4,247.8,267.7,238.8Z"
        transform="translate(-31.1 -50.9)"/>
  <path class="z" d="M275.6,279.7s-20.5-.7-21-7S273.4,269.6,275.6,279.7Z" transform="translate(-31.1 -50.9)"/>
  <path class="e" d="M296.9,296.3s13.6-17.7,21.8-12a3.5,3.5,0,0,1-.1,5.9c-1.3.8-4.2,1.5-7.6,1.7Z"
        transform="translate(-31.1 -50.9)"/>
  <path class="e" d="M286.1,307.4l-16-4.2a5,5,0,0,1-3.8-5.4c.3-2.1,2-3.8,7.6-2.5l.8.3c2.1.9,10.7,5,11.4,11.8"
        transform="translate(-31.1 -50.9)"/>
  <path class="z" d="M313,253s-21,3.6-18.9,31.4C294.1,284.4,312.7,277.9,313,253Z" transform="translate(-31.1 -50.9)"/>
  <path class="aa" d="M290.6,324.1s.8-35.8,2.5-38.3-5.4-27.3,18.8-34.1c0,0-.4,21.6-18.5,34.2"
        transform="translate(-31.1 -50.9)"/>
  <path class="aa"
        d="M289.1,321s.8-19-7.4-32.7c-2.1-3.4-3-4.9-4.5-6.3a14.1,14.1,0,0,0-7.3-3.4c-5.5-.8-16.2-3-15.4-7,0,0,14.3-10.1,27.2,16.7"
        transform="translate(-31.1 -50.9)"/>
  <path class="aa"
        d="M287.8,283.4a2.1,2.1,0,0,0-.9-1.2c-19.8-16.9-13.7-45.2-13.7-45.2,28,14.5,14.6,46.4,14.6,46.4,3,11.4,1.9,39.1,1.9,39.1"
        transform="translate(-31.1 -50.9)"/>
  <path class="aa"
        d="M292.8,319.4s-1-32.6,22.3-36.5a5,5,0,0,1,5,1.9c1,1.3,1.4,3.1-.4,5.5a5.7,5.7,0,0,1-4.6,2.1c-4.4-.2-14.2.1-18.1,5.5"
        transform="translate(-31.1 -50.9)"/>
  <path class="aa"
        d="M292,329.4s.9-32.6-21.1-36.4a4.5,4.5,0,0,0-4.7,1.8c-.9,1.3-1.3,3.2.4,5.5a5.4,5.4,0,0,0,4.3,2.1c4.2-.2,13.3.2,17.1,5.5"
        transform="translate(-31.1 -50.9)"/>
  <path class="aa" d="M299.4,271.3a49.7,49.7,0,0,0-5,12.2" transform="translate(-31.1 -50.9)"/>
  <path class="aa" d="M275.6,298.3s6.5,1.4,8.5,5.2" transform="translate(-31.1 -50.9)"/>
  <polygon class="t"
           points="247.4 264 272.5 264 272.5 267.2 270.8 267.2 268.2 279.2 266.5 279.2 266.5 281.9 253.5 281.9 253.5 279.3 251.5 279.3 248.5 266.1 247.1 266.1 247.1 264 247.4 264"/>
</svg>
