<svg xmlns="http://www.w3.org/2000/svg" xmlns:xlink="http://www.w3.org/1999/xlink" viewBox="0 0 1104 110">
  <defs>
    <radialGradient id="c" cx="50%" cy="50%" r="71.331%" fx="50%" fy="50%"
                    gradientTransform="matrix(0 1 -.98305 0 .992 0)">
      <stop offset="0%" stop-color="#FFF" stop-opacity="0"/>
      <stop offset="36.751%" stop-color="#EBFFFF" stop-opacity=".021"/>
      <stop offset="100%" stop-color="#68FFFF" stop-opacity=".16"/>
    </radialGradient>
    <radialGradient id="d" cx="50%" cy="50%" r="68.343%" fx="50%" fy="50%"
                    gradientTransform="matrix(0 1 -.98305 0 .992 0)">
      <stop offset="0%" stop-color="#3187FF"/>
      <stop offset="100%" stop-color="#338FFF"/>
    </radialGradient>
    <path id="a" d="M2 0h1180a2 2 0 012 2v108H0V2a2 2 0 012-2z"/>
  </defs>
  <g fill="none" fill-rule="evenodd" transform="translate(-51)">
    <mask id="b" fill="#fff">
      <use xlink:href="#a"/>
    </mask>
    <path stroke="#60ACFF"
          d="M1141 81.6l-57.71 8.514M193 108.716L552.803 33l124.508 53 48.373-34.264M673 86L51.208-.402" mask="url(#b)"
          opacity=".2"/>
    <g mask="url(#b)">
      <g transform="rotate(15 433.82 3647.357)">
        <circle cx="73" cy="73" r="73" stroke="#60ACFF" opacity=".2"/>
        <path stroke="#60ACFF" stroke-width="2.5" d="M9 84a65.977 65.977 0 0019 36" opacity=".4"/>
        <path stroke="#60ACFF" stroke-width="2.5" d="M121 31a65.247 65.247 0 00-12-11" opacity=".2"/>
        <path stroke="#60ACFF" stroke-width="2.5" d="M120 17a72.962 72.962 0 00-16-10" opacity=".4"/>
        <circle cx="73" cy="73" r="56" fill="url(#c)"/>
        <circle cx="73.5" cy="73.5" r="40.5" stroke="#60ACFF" opacity=".4"/>
        <path stroke="#60ACFF" stroke-width="2.5" d="M34 45a49.69 49.69 0 00-7 15" opacity=".4"/>
        <circle cx="73.5" cy="73.5" r="23.5" stroke="#60ACFF" stroke-width=".5" opacity=".4"/>
        <path stroke="#60ACFF" stroke-dasharray="1,1" d="M74 0v57M0 73.5h57M89 73.5h57" opacity=".4"/>
      </g>
    </g>
    <g mask="url(#b)">
      <g transform="rotate(-16 340.18 -2517.155)">
        <circle cx="43.721" cy="43.497" r="43" stroke="#60ACFF" opacity=".2"/>
        <path stroke="#60ACFF" stroke-width="2.5" d="M6.68 50.48a38.58 38.58 0 0011 21" opacity=".2"/>
        <path stroke="#60ACFF" stroke-width="1.5" d="M61.466 77.894c9.053-4.768 15.984-13.032 19-23" opacity=".2"/>
        <circle cx="43.721" cy="43.497" r="33" fill="url(#c)" opacity=".6"/>
        <circle cx="44.407" cy="44.734" r="24" stroke="#60ACFF" opacity=".2"/>
        <path stroke="#60ACFF" stroke-width="2.5" d="M21.008 27.23a30.513 30.513 0 00-4 9" opacity=".2"/>
        <circle cx="44.407" cy="44.734" r="14" stroke="#60ACFF" stroke-width=".5" opacity=".2"/>
        <path stroke="#60ACFF" stroke-dasharray="1,1"
              d="M44.364.674v34M.965 44.434h34M53.163 43.797h34M45.001 52.872v34" opacity=".3"/>
      </g>
    </g>
    <circle cx="552" cy="33" r="7" fill="url(#d)" mask="url(#b)"/>
    <circle cx="1148" cy="80" r="7" fill="url(#d)" mask="url(#b)" opacity=".6"/>
    <circle cx="677" cy="85" r="7" fill="url(#d)" mask="url(#b)"/>
    <circle cx="192" cy="108" r="7" fill="url(#d)" mask="url(#b)"/>
    <path stroke="#60ACFF" d="M633.81-1L528 108.433M851.336.145l96.88 62.077" mask="url(#b)" opacity=".2"/>
  </g>
</svg>
