<svg width="1em" height="1em" aria-hidden="true" focusable="false" class="">
  <symbol id="icon-facebook" viewBox="0 0 1024 1024">
    <path
      d="M535.9 1023.9c68.2 0 132.6 0 159.6 0l0 0.1C668.4 1024 604.1 1024 535.9 1023.9L535.9 1023.9zM253.5 0.6c-23 0.4-46.2 1.9-67 5.8-22.6 4.3-43.2 10-63.8 20.5-20.9 10.6-38.9 25.1-55 40.8-15.7 16.1-30.2 34.2-40.8 55-10.4 20.6-16.2 41.1-20.5 63.8-3.9 20.8-5.4 44-5.8 67-0.1 5.2-0.1 10-0.2 17.5l-0.3 450c0 5.7 0.1 11.9 0.1 18.7 0.2 16.3 0.3 23 0.4 30.7 0.4 23 1.9 46.2 5.8 67 1.9 9.9 4 19.4 6.7 28.6 3.5 11.9 7.9 23.5 13.8 35.1 10.6 20.9 25.1 38.9 40.8 55 16.1 15.7 34.2 30.2 55 40.8 20.6 10.4 41.1 16.2 63.8 20.5 20.8 3.9 44 5.4 67 5.8 7.7 0.1 14.4 0.2 30.7 0.4 15.5 0.1 28.2 0.2 37.6 0.2 26.1 0 123.5 0 214 0l0-397L407.1 626.8 407.1 478.3l127.8 0L534.9 340.1C534.9 234 616.9 158 722.9 158l137.2 3 0 142.6L755.3 303.6c-30.3 0-54.9 33.5-54.9 63.9l0 110.8 154.6 0-22 148.6L695.5 626.9l0 397c2.5 0 4.8 0 6.6 0 9.4 0 22.1-0.1 37.6-0.2 12.9-0.1 19.8-0.2 25.9-0.2 1.6 0 3.2 0 4.9-0.1 23-0.4 46.2-1.9 67-5.8 22.6-4.3 43.2-10 63.8-20.5 20.9-10.6 38.9-25.1 55-40.8 15.7-16.1 30.2-34.2 40.8-55 10.4-20.6 16.2-41.1 20.5-63.8 3.9-20.8 5.4-44 5.8-67 0.1-7.7 0.2-14.4 0.4-30.7 0.1-15.5 0.2-28.2 0.2-37.6L1024 321.9c0-3.2 0-6.9 0-10.9 0-7.6-0.1-16.6-0.2-26.8-0.2-16.3-0.3-23-0.4-30.7-0.4-23-1.9-46.2-5.8-67-4.3-22.6-10-43.2-20.5-63.8-10.6-20.9-25.1-38.9-40.8-55-16.1-15.7-34.2-30.2-55-40.8-20.6-10.4-41.1-16.2-63.8-20.5-20.8-3.9-44-5.4-67-5.8-7.7-0.1-14.4-0.2-30.7-0.4C724.2 0.1 711.5 0 702.1 0L321.8 0c-9.4 0-22.1 0.1-37.6 0.2C267.9 0.4 261.2 0.5 253.5 0.6z"></path>
  </symbol>
</svg>
